<?xml version="1.0" encoding="utf-8"?>
<!-- Generator: Adobe Illustrator 20.1.0, SVG Export Plug-In . SVG Version: 6.00 Build 0)  -->
<svg version="1.1" id="Layer_1" xmlns="http://www.w3.org/2000/svg" xmlns:xlink="http://www.w3.org/1999/xlink" x="0px" y="0px"
	 viewBox="0 0 25 25" style="enable-background:new 0 0 25 25;" xml:space="preserve">
<style type="text/css">
	.st0{fill:#231F20;stroke:#231F20;stroke-width:0.75;stroke-miterlimit:10;}
	.st1{fill:none;}
	.st2{fill:#231F20;}
</style>
<path class="st0" d="M0.8,12.5C0.8,6,6,0.8,12.5,0.8s11.7,5.3,11.7,11.7c0,6.5-5.2,11.7-11.7,11.7S0.8,19,0.8,12.5 M0.5,12.5
	c0,6.6,5.4,12,12,12s12-5.4,12-12s-5.4-12-12-12S0.5,5.9,0.5,12.5"/>
<rect x="0.5" y="0.5" class="st1" width="24" height="24"/>
<rect x="12" y="4.2" transform="matrix(0.7071 -0.7071 0.7071 0.7071 -5.3467 12.6102)" class="st2" width="1.1" height="17.2"/>
<rect x="3.9" y="12.3" transform="matrix(0.7071 -0.7071 0.7071 0.7071 -5.4043 12.6122)" class="st2" width="17.2" height="1.1"/>
</svg>
